<?xml version="1.0" encoding="UTF-8" standalone="no"?>

<svg
   width="153.3644mm"
   height="142.08054mm"
   viewBox="0 0 153.3644 142.08054"
   version="1.1"
   id="svg1"
   xml:space="preserve"
   xmlns="http://www.w3.org/2000/svg"
   xmlns:svg="http://www.w3.org/2000/svg"><defs
     id="defs1" /><g
     id="layer1"
     transform="translate(-28.15996,-77.674123)"><path
       style="fill:#000000"
       d="m 107.28017,219.11849 c -0.12576,-0.34991 -0.79849,-2.27451 -1.49495,-4.27689 -1.14183,-3.28288 -1.33477,-3.65519 -1.96314,-3.78812 -5.537932,-1.17155 -11.555121,-4.42389 -17.547313,-9.48447 l -2.033793,-1.7176 -2.260876,0.76423 c -4.162672,1.40707 -6.208678,1.71873 -11.26633,1.71616 -3.928459,-0.002 -4.991013,-0.0932 -7.01083,-0.60163 -2.901406,-0.73038 -4.888477,-1.61476 -6.386896,-2.8426 l -1.131571,-0.92724 -2.458789,1.23536 c -1.352335,0.67945 -3.316045,1.62623 -4.363802,2.10397 l -1.905012,0.86861 3.03165,-4.54946 3.03165,-4.54945 -0.437386,-1.11347 -0.437385,-1.11348 -6.510086,-0.0707 -6.510086,-0.0707 6.018254,-1.71979 c 5.93834,-1.69695 6.018267,-1.72929 6.019271,-2.43496 8.55e-4,-0.60136 -0.156872,-0.75901 -0.99117,-0.99071 -0.545703,-0.15155 -1.258109,-0.27621 -1.583123,-0.27702 -0.53419,-10e-4 -19.762922,4.31859 -20.708024,4.65226 -0.691696,0.2442 -0.04724,-0.23918 6.217709,-4.66367 3.346979,-2.36373 6.19282,-4.39434 6.324092,-4.51245 0.134398,-0.12093 -0.38958,-0.89335 -1.199306,-1.76795 -1.505548,-1.62617 -3.038636,-4.28991 -3.773268,-6.55606 -1.723132,-5.3154 -0.452933,-11.96542 3.310228,-17.33044 l 1.030773,-1.46953 -0.639501,-1.83776 c -1.02958,-2.95874 -1.305032,-4.8871 -1.142994,-8.00179 0.149621,-2.87601 0.710188,-5.10269 1.844802,-7.32792 0.634778,-1.24494 3.32187,-4.87682 4.630565,-6.25867 0.867497,-0.91599 0.906305,-1.03742 0.761034,-2.38125 -0.511442,-4.73111 -0.500193,-5.64125 0.09942,-8.04378 1.583976,-6.34667 4.094934,-10.36765 8.548035,-13.68859 0.700176,-0.52216 1.398124,-0.99107 1.550995,-1.04203 0.152871,-0.051 -0.754484,-2.15481 -2.016345,-4.67524 -1.26186,-2.52042 -2.255625,-4.621251 -2.208366,-4.66851 0.04726,-0.04726 2.135649,1.453804 4.640865,3.335696 2.505217,1.881894 4.728773,3.421624 4.941235,3.421624 0.836878,0 0.587094,-0.50633 -1.050421,-2.12929 -0.938879,-0.930537 -1.707053,-1.777485 -1.707053,-1.882109 0,-0.104625 1.328657,0.283732 2.952571,0.863015 1.623914,0.579282 3.031996,0.959104 3.129071,0.844044 0.09707,-0.11506 0.63125,-0.844121 1.187057,-1.620132 l 1.010557,-1.41093 -0.708683,-9.670884 c -0.389776,-5.318986 -0.659056,-9.720511 -0.5984,-9.781166 0.06065,-0.06066 2.52309,2.993779 5.472077,6.787633 3.856589,4.961477 5.480695,6.86205 5.785335,6.770157 4.163848,-1.256005 10.14455,-0.753669 14.123208,1.186248 2.874274,1.401442 6.579194,4.520141 8.532747,7.182632 0.801578,1.092462 1.792078,0.775402 2.379048,-0.761552 1.39809,-3.660857 5.13515,-7.60015 8.99062,-9.477152 6.50233,-3.1656 13.74211,-2.402857 20.10834,2.118501 1.52395,1.082326 3.79896,3.308824 4.66967,4.570098 0.39275,0.568916 0.48856,0.584711 1.81779,0.299642 1.34042,-0.287467 6.86771,-0.204403 8.06462,0.121194 0.42769,0.116345 1.77229,-1.219255 7.01146,-6.964533 3.56526,-3.909666 6.50823,-7.082804 6.53994,-7.051419 0.0317,0.03139 -0.65257,3.682373 -1.52061,8.113305 -0.86805,4.430931 -1.5786,8.131736 -1.57901,8.22401 -4e-4,0.09228 1.21965,-0.122845 2.71124,-0.478044 1.49159,-0.355198 3.05847,-0.717283 3.48196,-0.804632 0.72925,-0.150416 0.62663,0.0512 -1.94014,3.811894 l -2.71012,3.97071 0.81504,1.32462 c 1.65861,2.69558 3.45538,8.06092 3.46026,10.33269 0.001,0.69743 0.34551,1.23315 1.79736,2.79896 3.24635,3.5012 4.8309,7.55411 4.84022,12.38014 0.005,2.83888 -0.0529,3.1984 -0.99272,6.11881 l -0.66042,2.05209 1.47859,1.96459 c 0.81322,1.08052 1.97879,2.89551 2.59016,4.03332 0.61136,1.13781 1.61162,2.75116 2.2228,3.58521 1.1898,1.62369 2.52978,4.8181 3.1929,7.61166 0.30333,1.27784 0.37161,2.53734 0.2657,4.90115 l -0.14253,3.18135 2.65237,2.98871 c 1.4588,1.6438 2.606,3.03508 2.54933,3.09175 -0.0567,0.0567 -1.85474,-0.0853 -3.99571,-0.31542 l -3.89268,-0.41846 -1.91686,1.82046 c -2.08121,1.97653 -4.86687,3.54516 -7.28625,4.10295 -0.83825,0.19325 -1.7779,0.64902 -2.34019,1.13508 l -0.93954,0.81217 1.18673,1.92482 c 1.79638,2.91365 2.70136,5.95579 2.69357,9.05461 -0.0102,4.07538 -1.3021,7.03401 -4.41191,10.10417 -2.04756,2.02147 -4.57323,3.40252 -7.48802,4.09451 -1.01865,0.24184 -1.89432,0.47244 -1.94593,0.51245 -0.0516,0.04 0.29303,1.1543 0.76589,2.4762 0.47285,1.32191 0.80011,2.46309 0.72724,2.53596 -0.0729,0.0729 -0.94068,-0.23011 -1.92845,-0.67329 -0.98777,-0.44318 -1.83913,-0.7626 -1.89192,-0.70982 -0.0861,0.0862 3.72096,9.50276 4.07251,10.07307 0.0797,0.12932 -3.15674,-1.46117 -7.19212,-3.53442 l -7.33706,-3.76955 -1.7632,0.81175 c -6.69724,3.08326 -14.13664,3.87946 -20.29431,2.17198 l -1.81249,-0.50259 -2.79279,2.54681 c -1.53603,1.40075 -3.11616,2.83833 -3.5114,3.19463 l -0.71861,0.64783 z m 23.19666,-8.18264 c 3.06577,-0.73495 5.98876,-2.32212 8.36726,-4.54337 2.05944,-1.92329 4.01649,-4.35469 3.73317,-4.63802 -0.0916,-0.0916 -1.02856,-0.43982 -2.08218,-0.77388 l -1.91569,-0.60739 -1.46605,1.54066 c -2.89835,3.04582 -5.73627,4.39725 -10.04332,4.78267 -4.03922,0.36145 -8.55368,-0.65968 -12.38229,-2.80076 -2.3044,-1.28869 -5.8365,-4.72147 -7.62721,-7.41274 l -1.44734,-2.17522 -1.50856,-0.18181 c -2.68262,-0.32332 -2.8405,-0.30727 -2.74817,0.27922 0.15332,0.97389 1.56853,3.75952 2.97647,5.85875 3.6595,5.45631 9.35941,9.29813 15.85793,10.68848 3.14314,0.67247 7.44053,0.66554 10.28598,-0.0166 z m -27.59615,-5.48429 c -0.0814,-0.25466 -0.55681,-1.41552 -1.05659,-2.57968 L 100.9154,200.75521 98.250782,199.3 c -4.636915,-2.53232 -7.996862,-5.63737 -11.090927,-10.24954 -2.586339,-3.85533 -4.999747,-10.46335 -5.968155,-16.34108 -0.438557,-2.66181 -0.960977,-11.7003 -0.773566,-13.3836 0.709704,-6.37446 2.033052,-12.30327 3.538462,-15.85286 1.093756,-2.57896 3.349067,-6.03132 5.224512,-7.99753 1.694943,-1.77697 4.343533,-3.62805 6.278895,-4.38827 0.723373,-0.28414 1.258493,-0.61991 1.189156,-0.74614 -0.06934,-0.12624 -0.694415,-0.67878 -1.389063,-1.22786 -0.694647,-0.54909 -1.262994,-1.11464 -1.262994,-1.25677 0,-0.35988 0.623075,-0.32328 1.005416,0.0591 0.194624,0.19462 0.3175,0.21049 0.3175,0.041 0,-0.15207 -0.243204,-0.49659 -0.540454,-0.76559 -0.528314,-0.47812 -0.577621,-0.47078 -2.195086,0.32683 -4.635166,2.2857 -8.823145,7.02043 -11.764943,13.30088 -1.558554,3.32736 -2.235373,5.36317 -3.189866,9.59482 -1.17537,5.21089 -1.453497,8.56556 -1.284703,15.49563 0.139261,5.71755 0.19197,6.19764 1.095205,9.97539 1.391649,5.82051 2.343703,8.6796 3.929504,11.80061 2.078939,4.09156 3.711654,6.38834 6.674301,9.38893 4.064567,4.11663 7.957956,6.78228 11.978784,8.20142 2.195,0.77471 3.06627,0.82844 2.85792,0.17622 z m 17.0944,-3.19784 c 4.11998,-3.28692 6.56457,-6.8486 7.7784,-11.33286 0.41249,-1.52384 0.43227,-2.01121 0.15851,-3.90464 -0.17204,-1.18991 -0.31603,-2.51448 -0.31996,-2.94349 l -0.007,-0.78002 -0.86892,0.93377 c -0.52547,0.56471 -1.25932,1.94137 -1.85667,3.48306 -2.29007,5.91033 -5.63763,10.06042 -10.29858,12.76749 -1.01148,0.58746 -1.20414,0.80719 -0.96277,1.09804 0.30422,0.36655 3.83658,2.22285 4.22989,2.22285 0.11643,0 1.0827,-0.69489 2.14726,-1.5442 z m 11.98973,-2.64353 c 2.23249,-1.1873 2.23123,-1.18188 0.61687,-2.65732 -0.78988,-0.7219 -1.66852,-1.79744 -1.95255,-2.39009 -0.28402,-0.59265 -0.57593,-1.07862 -0.64869,-1.07995 -0.0728,-0.001 -0.46009,0.62239 -0.86072,1.38603 -0.40064,0.76364 -1.31355,2.16234 -2.02868,3.10822 l -1.30025,1.7198 0.83805,0.32674 c 1.23387,0.48106 4.06676,0.26157 5.33597,-0.41343 z m 20.10833,-0.97454 c 3.42199,-0.72164 6.31031,-2.55725 8.61842,-5.47722 2.52867,-3.19901 1.76992,-7.78296 -1.94572,-11.75499 -2.31319,-2.47281 -2.11303,-2.42812 -5.29549,-1.18239 l -0.73947,0.28946 1.71564,1.60489 c 2.20212,2.05997 3.07058,3.74287 3.07058,5.95014 0,3.06214 -1.78539,5.14438 -5.3754,6.26914 -5.07587,1.59029 -10.89827,-0.21199 -14.2668,-4.41618 -1.80125,-2.24811 -2.39349,-3.94708 -2.42494,-6.95646 -0.0141,-1.34603 -0.0259,-2.44736 -0.0264,-2.44739 -4.6e-4,-4e-5 -0.8044,-0.22986 -1.78653,-0.51073 -1.73986,-0.49755 -1.79247,-0.498 -2.04968,-0.0174 -0.40813,0.76259 -0.3159,5.50925 0.14114,7.26393 0.22282,0.85547 0.78837,2.27947 1.25677,3.16445 1.16203,2.19547 4.3343,5.48183 6.08723,6.30615 4.31925,2.03112 9.12042,2.7371 13.02066,1.91459 z m -76.861456,-0.95552 c 1.870152,-0.2906 6.614584,-1.77424 6.614584,-2.06847 0,-0.13257 -2.097171,-3.42197 -2.491556,-3.90799 -0.02486,-0.0306 -1.126185,0.29192 -2.447384,0.71679 -3.010203,0.96803 -5.192117,1.19399 -7.879705,0.81602 -5.006322,-0.70406 -8.154335,-3.6083 -8.894769,-8.20597 -0.632876,-3.92981 1.547683,-9.8585 5.627982,-15.30185 l 1.533947,-2.04637 -1.653945,-0.1844 c -3.997304,-0.44567 -3.592199,-0.56548 -5.008526,1.48139 -4.041807,5.84122 -5.926261,12.32307 -5.007455,17.22385 0.45257,2.41394 1.849543,5.0902 3.669364,7.02962 3.932025,4.19044 8.817432,5.55372 15.937463,4.44738 z m 72.848486,-6.70525 c 0.20498,-1.65451 0.19861,-3.01931 -0.0234,-5.00568 -0.45016,-4.02842 -0.35806,-3.91684 -3.68952,-4.46949 -1.54229,-0.25585 -2.84405,-0.42529 -2.8928,-0.37655 -0.0487,0.0487 0.0961,0.97356 0.32179,2.05514 0.24206,1.15978 0.41451,3.35397 0.42039,5.34867 l 0.01,3.38218 1.03332,0.52717 c 1.30507,0.66579 3.99578,1.30723 4.30454,1.02615 0.12862,-0.11708 0.36067,-1.2365 0.51568,-2.48759 z m -53.293852,0.26272 c 1.054337,-1.08735 1.839692,-2.10204 1.745231,-2.25488 -0.09446,-0.15284 -0.895356,-0.64317 -1.779769,-1.08962 l -1.608024,-0.81173 -1.669395,1.67755 -1.669395,1.67754 1.203847,1.38906 c 0.662117,0.76399 1.351601,1.38906 1.532187,1.38906 0.180587,0 1.19098,-0.88964 2.245318,-1.97698 z m -26.730825,-1.02411 c 0.197519,-0.88261 0.251027,-2.19945 0.142449,-3.50573 l -0.173899,-2.09213 1.223853,-2.3383 c 1.140352,-2.17876 1.294258,-2.82108 0.67596,-2.82108 -0.410858,0 -2.616626,3.16641 -3.687648,5.29367 -0.948169,1.88324 -1.852441,4.43021 -1.852441,5.21757 0,0.33771 2.431185,1.65132 3.066752,1.65701 0.158744,10e-4 0.430982,-0.63353 0.604974,-1.41101 z m 51.626197,-0.6362 c 2.81526,-0.71157 3.10198,-0.91524 3.54843,-2.52061 0.64653,-2.32484 0.78242,-3.6319 0.37743,-3.63015 -0.1947,8.4e-4 -1.46018,0.35492 -2.8122,0.78686 -8.29956,2.65148 -16.89,1.39548 -25.496824,-3.72786 l -0.967533,-0.57594 -1.149133,0.93101 c -0.632024,0.51205 -1.53998,1.1295 -2.01768,1.3721 -0.477701,0.2426 -0.809845,0.53607 -0.738098,0.65216 0.270114,0.43705 3.806369,2.65398 5.932234,3.719 2.695889,1.3506 6.853834,2.76435 9.697324,3.29722 3.01035,0.56413 10.88692,0.38853 13.62605,-0.30379 z m -39.422922,-0.2123 c 0,-0.08 -0.181651,-0.49671 -0.40367,-0.92604 -0.309744,-0.59898 -0.586776,-0.78062 -1.190625,-0.78062 -0.941358,0 -0.990636,0.25162 -0.191643,0.97854 0.738277,0.67168 1.785938,1.0988 1.785938,0.72812 z m -15.761225,-2.76263 c 0.64603,-1.65601 0.652901,-1.73453 0.192103,-2.19532 -0.460798,-0.4608 -0.524495,-0.46037 -1.780947,0.0121 -1.185156,0.44568 -1.295548,0.55849 -1.220069,1.24669 0.08183,0.74616 0.897825,2.57768 1.460372,3.27786 0.236966,0.29494 0.323626,0.27123 0.483623,-0.1323 0.107209,-0.27039 0.496422,-1.26446 0.864918,-2.20905 z m 25.39505,1.49533 c 0.92892,-0.74329 0.730438,-1.23311 -0.499675,-1.23311 -1.582962,0 -1.804616,0.20453 -1.176953,1.086 0.657142,0.92287 0.702183,0.92682 1.676628,0.14711 z m -0.5057,-2.29144 c 0.08994,-0.14552 -0.01507,-0.26458 -0.233353,-0.26458 -0.218282,0 -0.47046,0.11906 -0.560397,0.26458 -0.08994,0.14552 0.01507,0.26458 0.233354,0.26458 0.218281,0 0.470459,-0.11906 0.560396,-0.26458 z m -26.4468,-2.92908 c 0.204766,-0.33132 -0.948232,-0.87026 -1.239238,-0.57926 -0.407679,0.40768 0.01711,1.08277 0.587456,0.93362 0.283912,-0.0742 0.577213,-0.2337 0.651782,-0.35436 z m 13.759397,-3.90039 c -0.37073,-1.46252 -0.674056,-2.88127 -0.674056,-3.15276 0,-0.27149 -0.551066,-1.32148 -1.224593,-2.3333 -0.673526,-1.01182 -1.632507,-2.7091 -2.131068,-3.77174 -0.498562,-1.06263 -1.067843,-1.99398 -1.265069,-2.06966 -0.507307,-0.19467 -1.710697,0.49228 -2.741393,1.56492 l -0.879831,0.91563 0.921776,1.81892 c 1.043321,2.05876 3.005484,4.9089 4.681263,6.79978 1.045991,1.18025 3.678721,3.19565 3.893687,2.98069 0.05134,-0.0513 -0.209985,-1.28995 -0.580716,-2.75248 z m 11.384311,1.43047 c 4.70205,-2.15267 10.098013,-6.85979 13.295409,-11.59812 2.52864,-3.74729 3.95271,-6.92077 5.13246,-11.43746 0.75928,-2.90688 0.8328,-3.55051 0.84719,-7.41646 0.0111,-2.97133 -0.12039,-4.94321 -0.44095,-6.61459 -0.84241,-4.39234 -0.67276,-4.12098 -3.80594,-6.08783 -1.53755,-0.9652 -2.83129,-1.71669 -2.87498,-1.66999 -0.0437,0.0467 0.31661,1.27553 0.80069,2.73074 1.33705,4.01936 1.74203,6.25148 1.89617,10.45126 0.19697,5.36625 -0.54433,8.88207 -2.86002,13.56449 -3.404428,6.8839 -8.854541,11.9963 -14.871886,13.95036 -1.191707,0.387 -1.759998,0.69961 -1.674901,0.92137 0.07084,0.18461 0.385723,1.19835 0.699742,2.25277 l 0.570943,1.91712 0.914864,-0.14846 c 0.503174,-0.0816 1.570219,-0.44849 2.371209,-0.8152 z m 57.476009,-0.97182 c -0.0523,-0.15698 -1.28263,-0.67424 -2.73402,-1.14947 -1.45139,-0.47523 -3.43512,-1.22892 -4.40828,-1.67487 -1.952,-0.89449 -4.30195,-2.4165 -4.07753,-2.64091 0.0789,-0.0789 1.60529,0.58604 3.39203,1.47759 1.78675,0.89155 4.55832,2.05472 6.15905,2.58482 2.79933,0.92704 3.01141,0.95767 5.55625,0.80265 3.06191,-0.18652 5.18472,-0.70119 7.25939,-1.76001 2.93921,-1.50006 2.91263,-1.52783 -1.32771,-1.38706 -2.89254,0.096 -4.38274,0.0195 -6.16292,-0.31627 -8.40074,-1.58476 -15.25267,-5.82594 -22.93414,-14.19565 -4.27977,-4.66324 -7.41674,-9.15569 -9.68049,-13.86345 l -1.4594,-3.03502 -2.66401,-1.46076 c -1.4652,-0.80342 -2.70322,-1.46077 -2.75116,-1.46077 -0.22183,0 2.20116,6.47472 3.21794,8.59896 2.62278,5.47948 7.88676,12.38719 13.91963,18.26617 7.12885,6.947 10.45701,9.23094 15.836,10.86739 2.21714,0.67453 3.00031,0.76947 2.85937,0.34666 z m -90.827006,-1.58662 c 0.225852,-0.7116 0.189638,-0.73849 -1.634287,-1.21369 -2.621345,-0.68297 -4.348497,-1.66019 -6.201447,-3.50878 -2.453288,-2.44751 -3.002818,-3.89945 -3.011787,-7.95759 -0.006,-2.7187 0.07686,-3.27387 0.778237,-5.21356 l 0.784961,-2.17085 -0.632644,-0.67342 c -0.347955,-0.37038 -0.737664,-0.67342 -0.866022,-0.67342 -0.384735,0 -1.766487,1.63033 -2.578778,3.04271 -1.142713,1.9869 -2.202419,5.35928 -2.025886,6.44713 0.220365,1.35795 1.790657,4.47703 3.054203,6.06657 1.998784,2.51449 5.724849,4.85386 9.414688,5.91094 2.157827,0.61818 2.708127,0.60761 2.918762,-0.056 z m 59.260336,-0.47168 c 0.65237,-0.21093 0.39923,-0.2607 -1.42125,-0.27939 -3.03534,-0.0312 -7.3452,-0.70653 -9.63712,-1.51016 -1.04842,-0.36761 -2.08744,-0.7259 -2.30893,-0.7962 -0.4176,-0.13253 -1.788108,1.10703 -1.520192,1.37495 0.244992,0.24499 3.076502,0.94773 5.362492,1.3309 2.31414,0.38789 8.18276,0.31389 9.525,-0.1201 z m -58.373205,-2.4017 c 0.746602,-1.73552 0.715351,-1.99567 -0.316322,-2.63328 -1.43833,-0.88894 -3.769677,-3.52158 -4.632934,-5.23169 -1.028007,-2.03647 -1.897329,-4.61085 -1.897329,-5.61869 0,-0.52589 -0.292812,-1.09373 -0.891137,-1.72814 -0.490125,-0.51968 -0.963955,-0.94488 -1.052956,-0.94488 -0.334107,0 -1.164368,2.04239 -1.461616,3.59549 -0.631762,3.30091 0.68068,7.50973 3.21673,10.31559 1.428153,1.5801 4.632419,3.41097 6.175669,3.52868 0.163981,0.0125 0.550934,-0.56488 0.859895,-1.28308 z m 31.61907,-0.77237 1.556279,-0.70753 -1.352304,-1.5837 c -1.105912,-1.29515 -3.432701,-4.97745 -3.842888,-6.08162 -0.06351,-0.17097 -0.274157,-0.16047 -0.595328,0.0297 -0.445128,0.26352 -0.488026,0.58129 -0.410746,3.04271 0.103657,3.30155 0.367541,4.44549 1.273987,5.52274 0.771247,0.91657 0.882098,0.90926 3.371,-0.22226 z m 32.705075,0.33757 c 2.07206,-0.39203 6.79303,-1.87117 6.99014,-2.1901 0.0628,-0.10158 -0.67296,-0.99533 -1.63498,-1.98611 -1.96063,-2.01923 -1.7664,-1.98204 -4.9561,-0.94907 -1.66247,0.53838 -2.38028,0.60038 -7.01145,0.60565 -4.82048,0.005 -5.31579,-0.0403 -7.54063,-0.69723 -1.30969,-0.38672 -2.41244,-0.61659 -2.45055,-0.51084 -0.0381,0.10575 -0.59614,1.02555 -1.24005,2.044 -1.16764,1.84681 -1.16921,1.8526 -0.59216,2.17943 0.92007,0.52112 3.27441,1.16794 6.13484,1.68546 3.05127,0.55205 8.87918,0.46621 12.30094,-0.18119 z m 38.10562,-3.04062 c 2.89126,-0.8012 4.91194,-1.9721 7.0312,-4.07426 5.93007,-5.88223 6.06502,-14.88882 0.33709,-22.49763 -1.96947,-2.61617 -2.05587,-2.69741 -2.34737,-2.20721 -0.14346,0.24124 -0.7304,1.03267 -1.30432,1.75873 l -1.04349,1.32011 1.07415,1.41627 c 6.0567,7.98576 3.50697,17.65657 -5.25704,19.93931 -3.43335,0.89427 -8.1478,0.2117 -11.43146,-1.65509 -0.96061,-0.54612 -1.82305,-1.02836 -1.91653,-1.07165 -0.0935,-0.0433 -0.73403,0.66301 -1.42346,1.56954 -0.90654,1.19202 -1.18651,1.75444 -1.01148,2.03192 0.35601,0.5644 3.39301,2.34041 5.09564,2.97991 2.1876,0.82163 3.25102,0.97697 6.90729,1.00897 2.60404,0.0228 3.73553,-0.0882 5.28978,-0.51892 z m -63.29681,-4.23663 c -0.37853,-0.10124 -1.56214,-0.26848 -2.630242,-0.37165 l -1.942005,-0.18758 1.719792,1.35223 1.719792,1.35223 0.91045,-0.98059 0.910451,-0.98058 z m 18.64494,1.1623 c 0.35351,-0.20158 0.21051,-1.06673 -0.27553,-1.66696 l -0.47396,-0.58532 -1.50032,1.01903 c -0.82518,0.56047 -1.50487,1.10078 -1.51041,1.2007 -0.022,0.39567 3.0764,0.42249 3.76022,0.0325 z m 7.95059,-0.9233 c 0.51675,-0.2709 0.43912,-0.38614 -2.24023,-3.32582 -1.13021,-1.24001 -1.22924,-1.28007 -1.9185,-0.77608 -0.45292,0.33119 -0.44067,0.41943 0.24795,1.78594 1.29146,2.5628 1.65608,2.94712 2.6033,2.74391 0.45725,-0.0981 1.04562,-0.29067 1.30748,-0.42795 z m 16.10224,-0.57859 c 2.29818,-1.87874 4.44562,-4.6636 6.04495,-7.83927 0.81306,-1.61443 1.85066,-4.30848 1.85066,-4.80511 0,-0.12274 -0.95049,-0.22316 -2.11221,-0.22316 h -2.11221 l -0.70013,1.38906 c -1.7531,3.47816 -4.39301,6.63199 -7.49323,8.95198 l -0.90841,0.67979 1.81978,1.50104 c 1.00088,0.82558 1.90477,1.50105 2.00864,1.50105 0.10386,0 0.82484,-0.51992 1.60216,-1.15538 z m -65.821412,-2.83952 c 3.330164,-0.36537 3.282241,-0.32176 3.385944,-3.0816 0.04787,-1.27391 0.06186,-2.36059 0.03109,-2.41484 -0.03077,-0.0542 -1.162501,0.18388 -2.514959,0.52917 -3.452058,0.88132 -9.15443,0.89183 -12.193427,0.0225 -4.039512,-1.15557 -7.857415,-3.56732 -10.310091,-6.51284 -1.520456,-1.82597 -2.359677,-3.49614 -2.986033,-5.94259 -0.71065,-2.7757 0.06699,-5.75816 2.129715,-8.16799 0.50863,-0.59422 0.924781,-1.32489 0.924781,-1.62373 0,-0.61935 -1.004878,-3.47716 -1.356687,-3.85833 -0.321257,-0.34807 -2.362118,1.69674 -3.822905,3.83029 -4.399263,6.42536 -3.050778,14.39047 3.495644,20.64777 2.256175,2.15652 3.76364,3.19237 6.537689,4.49233 5.073218,2.37739 9.236191,2.89651 16.67924,2.07987 z m 26.712949,-1.23062 c 1.617848,-2.66427 1.617961,-2.6639 -1.210885,-4.02064 -2.074288,-0.99485 -2.823571,-1.546 -4.855951,-3.57188 -2.782127,-2.77322 -3.970421,-4.62303 -5.400696,-8.40723 l -1.027867,-2.71953 -0.402781,0.9598 c -0.585836,1.396 -1.481082,4.86185 -1.481082,5.73386 0,1.10171 2.451943,5.03529 4.574665,7.33899 1.00782,1.09375 2.607405,2.54166 3.554634,3.21759 1.618655,1.15505 4.750611,2.9711 5.146857,2.98438 0.0986,0.003 0.595002,-0.6786 1.103106,-1.51534 z m 12.487503,0.33212 c 1.31604,-0.34168 3.07833,-0.92441 3.9162,-1.29496 l 1.5234,-0.67372 -0.97778,-1.5299 c -1.93873,-3.03347 -1.61718,-2.76341 -2.71315,-2.27868 -0.53156,0.2351 -1.84924,0.69188 -2.92818,1.01507 l -1.96171,0.58761 -0.8398,2.41599 c -0.46189,1.3288 -0.77358,2.48221 -0.69265,2.56314 0.20785,0.20784 1.88875,-0.0815 4.67367,-0.80455 z m 37.95615,-2.04909 c 3.0769,-1.51258 5.616,-3.72746 7.00341,-6.10914 1.53688,-2.63826 2.98453,-6.99053 2.24298,-6.74335 -0.17216,0.0574 -0.64334,1.01035 -1.04705,2.1177 -0.89166,2.44571 -2.38752,5.31331 -3.42359,6.56309 -1.22289,1.47514 -1.22574,0.72882 -0.004,-1.07015 1.53214,-2.25617 3.48391,-6.60108 2.96526,-6.60108 -0.6065,0 -4.0791,1.95684 -4.47091,2.5194 -1.46154,2.09847 -2.79786,3.54665 -4.1447,4.49165 -1.38011,0.96835 -1.60763,1.27793 -2.66476,3.62595 -0.63571,1.41196 -1.08649,2.63654 -1.00176,2.72127 0.31908,0.31908 1.85579,-0.19325 4.5452,-1.51534 z m -12.33534,-1.8572 c 0.52704,-0.76524 0.95826,-1.51962 0.95826,-1.67638 0,-0.28356 -3.51817,-3.81143 -3.80094,-3.81143 -0.0815,0 -0.74995,-0.23718 -1.48539,-0.52707 l -1.33717,-0.52706 -0.57052,1.17429 -0.57052,1.1743 2.58577,2.79235 c 1.42218,1.53579 2.73798,2.79235 2.92401,2.79235 0.18603,0 0.76945,-0.62611 1.2965,-1.39135 z m -51.460038,-0.6161 c 0.05582,-0.0504 -0.406131,-0.94618 -1.026564,-1.99052 -1.332603,-2.24311 -1.469969,-2.1494 -1.740716,1.1874 l -0.188986,2.32916 1.427385,-0.71716 c 0.785062,-0.39444 1.473058,-0.75844 1.528881,-0.80888 z m 79.090478,-2.11776 c 0.16101,-3.0589 -0.74946,-5.88912 -2.90693,-9.03627 -0.75094,-1.09542 -0.7855,-1.11266 -1.40998,-0.70349 l -0.64016,0.41945 1.01995,1.36495 c 2.28012,3.05133 3.58174,6.61835 3.4084,9.34052 -0.0768,1.20659 -0.0327,1.55629 0.15422,1.22278 0.144,-0.25691 0.31253,-1.43048 0.3745,-2.60794 z m -37.7286,0.61948 c 0.71269,-0.94565 2.39112,-3.77662 2.65642,-4.48051 0.13453,-0.35695 -0.18551,-0.58068 -1.60862,-1.12448 -0.97711,-0.37337 -1.85413,-0.67886 -1.94893,-0.67886 -0.17045,0 -2.55663,3.29965 -2.66876,3.69041 -0.0789,0.27497 2.39542,3.45334 2.68838,3.45334 0.1284,0 0.52508,-0.38695 0.88151,-0.8599 z m -51.033258,-1.05833 c 0.07963,-0.32742 0.219043,-1.30969 0.309817,-2.18281 l 0.165043,-1.5875 -3.156773,-1.67225 c -4.931968,-2.61264 -9.731315,-6.84508 -13.404911,-11.8215 -2.68199,-3.63315 -3.122284,-4.3566 -4.126971,-6.78106 -1.835019,-4.42818 -2.270208,-8.49448 -1.310645,-12.24634 0.679009,-2.65489 1.646368,-4.41137 3.446023,-6.2571 1.992554,-2.04357 2.844381,-2.44206 7.076947,-3.3107 0.524863,-0.10772 0.596059,-0.28596 0.601624,-1.5062 0.0035,-0.76121 0.109996,-1.8305 0.23672,-2.37621 0.292554,-1.2598 0.136376,-1.26406 -2.578574,-0.0704 -8.643225,3.80021 -12.378133,8.13367 -13.282461,15.41111 -0.641835,5.16507 0.939853,11.56944 4.140017,16.76324 2.396097,3.88882 6.119528,8.04577 10.355841,11.56158 1.494182,1.24006 2.654881,2.31647 2.579331,2.39202 -0.269474,0.26947 -3.989141,-2.50472 -6.275465,-4.68035 -1.279009,-1.21709 -2.325471,-2.13138 -2.325471,-2.03175 0,0.79629 5.188774,5.58447 8.345909,7.70156 1.857679,1.2457 2.314392,1.41713 2.068522,0.7764 -0.242511,-0.63197 0.218911,-0.48696 3.367541,1.05834 1.630792,0.80036 3.113146,1.4552 3.29412,1.4552 0.180973,0 0.394191,-0.26789 0.473816,-0.59531 z m 21.138891,-2.28464 c 1.349651,-0.71084 3.004735,-1.4953 3.677967,-1.74324 l 1.22406,-0.45079 -0.0837,-2.51835 c -0.046,-1.38509 -0.1498,-2.58441 -0.23055,-2.66516 -0.36967,-0.36967 -8.828922,3.74828 -9.908554,4.82346 -0.311877,0.31059 -0.137569,0.62391 1.171464,2.10571 0.845821,0.95745 1.573314,1.74082 1.61665,1.74082 0.04334,0 1.183053,-0.5816 2.532703,-1.29245 z m 51.208907,0.8129 c 0.15873,-0.47622 -0.38815,-0.37615 -0.5727,0.10479 -0.0989,0.25768 -0.0397,0.37864 0.15359,0.31419 0.17291,-0.0576 0.3615,-0.24618 0.41911,-0.41898 z m -8.39815,-2.41613 c -0.29681,-0.55458 -0.80164,-0.96171 -0.80164,-0.64649 0,0.20406 0.80474,1.16092 0.97636,1.16092 0.0553,0 -0.0233,-0.23149 -0.17472,-0.51443 z m -62.769015,-2.79666 c 0.423006,-1.58157 0.403874,-2.0069 -0.124188,-2.76081 -0.420686,-0.60061 -0.453959,-0.60708 -0.642862,-0.12502 -0.244509,0.62397 -0.295544,3.08912 -0.07581,3.66174 0.267921,0.69819 0.507612,0.47754 0.842858,-0.77591 z m 60.332365,0.5574 c 0.53545,0.0818 1.09262,0.14015 1.23814,0.12969 0.14552,-0.0105 0.95312,-0.0633 1.79466,-0.11735 0.84155,-0.0541 1.6045,-0.17274 1.69545,-0.26369 0.091,-0.0909 0.32515,-0.0328 0.52044,0.12932 0.52536,0.43601 0.44384,-0.14045 -0.10795,-0.76333 -0.3888,-0.4389 -1.0356,-0.56927 -4.03489,-0.81331 -5.7669,-0.46921 -10.73342,-1.62497 -16.36874,-3.80916 -2.16469,-0.83901 -2.78829,-0.98924 -2.9591,-0.71287 -0.11903,0.19259 -0.15588,0.44812 -0.0819,0.56783 0.23482,0.37993 3.56834,1.93218 6.44515,3.00115 1.52797,0.56777 2.81205,1.10599 2.8535,1.19603 0.0415,0.09 0.36888,0.10762 0.72761,0.039 0.36916,-0.0706 0.65223,-7e-5 0.65223,0.16245 0,0.15791 0.18465,0.21626 0.41033,0.12966 0.23771,-0.0912 0.68913,0.10445 1.07303,0.4651 0.48918,0.45957 0.61679,0.50296 0.48739,0.16576 -0.26129,-0.68091 0.51991,-0.5783 1.05456,0.13852 0.31331,0.42006 0.40314,0.45901 0.30516,0.13229 -0.19909,-0.66382 0.80679,-0.60968 1.22885,0.0662 0.38568,0.61758 0.7857,0.7115 0.56344,0.13229 -0.23327,-0.6079 0.63708,-0.48819 1.02656,0.14119 0.26257,0.42431 0.35089,0.45312 0.41774,0.1363 0.0645,-0.30552 0.31802,-0.36614 1.05834,-0.25306 z m -62.519931,-6.9036 c 0.571351,-5.70903 1.976939,-13.09416 3.007067,-15.79949 0.150419,-0.39503 0.188741,-0.76986 0.08516,-0.83297 -0.10358,-0.0631 -0.978098,-0.19876 -1.943374,-0.30146 l -1.755046,-0.18673 -0.721502,2.16647 c -0.396827,1.19156 -1.102906,4.03168 -1.569066,6.31137 -0.820823,4.01413 -0.869293,4.14747 -1.536363,4.22649 -0.662898,0.0785 -0.68714,0.0338 -0.644639,-1.19062 0.02429,-0.69972 0.19299,-1.42956 0.374891,-1.62185 0.355079,-0.37537 0.441507,-0.841 0.156103,-0.841 -0.267377,0 -6.45465,3.06936 -7.454282,3.69789 l -0.882034,0.55459 0.927797,1.02696 c 0.510288,0.56483 1.125305,1.3284 1.366704,1.69682 l 0.438907,0.66986 2.495782,-1.30952 c 1.37268,-0.72023 2.735472,-1.30952 3.028427,-1.30952 0.501525,0 0.520621,0.10435 0.32684,1.78594 -0.113193,0.98227 -0.205806,2.67891 -0.205806,3.77031 v 1.98438 l 1.984375,1.12739 1.984375,1.1274 0.06925,-1.39198 c 0.03809,-0.76559 0.247982,-3.17792 0.466434,-5.36073 z m 16.529942,6.48229 c 0,-0.14552 -0.178593,-0.26458 -0.396875,-0.26458 -0.218281,0 -0.396875,0.11906 -0.396875,0.26458 0,0.14552 0.178594,0.26459 0.396875,0.26459 0.218282,0 0.396875,-0.11907 0.396875,-0.26459 z m 65.766839,-2.48568 c 1.55798,-1.04921 4.34775,-3.54581 4.34775,-3.89087 0,-0.5641 -0.80164,-0.11075 -2.88596,1.63209 -1.22348,1.02303 -2.44387,1.97745 -2.71198,2.12094 -0.47441,0.2539 -0.68995,1.03602 -0.28551,1.03602 0.11108,0 0.80215,-0.40418 1.5357,-0.89818 z m -7.87839,-0.16067 c 1.35204,-0.28401 3.17117,-0.80434 4.04252,-1.15629 4.6337,-1.87164 8.92464,-5.72266 10.79813,-9.69111 0.62039,-1.3141 0.68729,-1.7644 0.68989,-4.64393 0.003,-3.17646 -0.001,-3.19676 -1.03039,-5.27941 -2.68088,-5.4244 -8.57729,-8.86207 -15.20051,-8.86207 -3.77211,0 -9.03392,1.31258 -9.03392,2.25356 0,0.18497 0.3406,0.70093 0.7569,1.14657 0.4163,0.44565 0.90699,1.17262 1.09043,1.61548 0.18345,0.44287 0.35998,0.80522 0.39231,0.80522 0.0323,0 0.76202,-0.2475 1.62154,-0.55 2.20731,-0.77683 6.32468,-0.97596 8.51957,-0.41204 3.71881,0.95545 6.48328,3.02445 7.90231,5.91429 1.04834,2.13492 1.0596,4.60648 0.0305,6.70182 -2.06069,4.19593 -7.86075,7.87995 -13.74574,8.73088 -2.87837,0.41619 -7.46554,0.29249 -10.90409,-0.29404 -4.39966,-0.75047 -4.48553,-0.80184 -4.70821,-2.81648 -0.36663,-3.31683 -1.84247,-7.28643 -4.07592,-10.96309 l -0.97039,-1.59744 -1.55359,1.53737 c -0.85447,0.84556 -1.55358,1.64459 -1.55358,1.77563 0,0.13104 0.41243,0.91719 0.91652,1.747 0.50408,0.82981 1.22986,2.51226 1.61284,3.73878 0.38298,1.22651 0.78186,2.40017 0.88641,2.60812 0.10454,0.20794 1.00873,0.65424 2.0093,0.99175 1.75337,0.59146 2.35805,1.01592 2.08248,1.4618 -0.21646,0.35025 -0.93981,0.24377 -3.06976,-0.45189 -2.93789,-0.95955 -7.96619,-3.26056 -10.68379,-4.88903 -3.81118,-2.28378 -11.69133,-7.55714 -12.74791,-8.53084 -1.25624,-1.1577 -4.057747,-5.09752 -4.867564,-6.84538 l -0.817052,-1.76347 -2.014382,-0.32014 c -1.10791,-0.17607 -2.16321,-0.36499 -2.345111,-0.41981 -0.511789,-0.15425 -0.399424,0.49076 0.464247,2.66492 1.875387,4.72102 3.811603,7.78188 6.033529,9.53811 2.174983,1.71912 9.539703,6.66233 12.565343,8.43388 6.55957,3.84069 15.48668,7.03448 22.93949,8.20689 3.38282,0.53216 10.53902,0.33459 13.96761,-0.38561 z m -48.19026,-2.5242 c 0.0861,-0.22443 -0.12597,-1.26622 -0.47132,-2.3151 l -0.62791,-1.90706 -2.248958,-0.0476 c -1.340895,-0.0284 -3.103607,-0.28009 -4.365626,-0.62333 -1.164166,-0.31662 -2.372288,-0.63414 -2.684714,-0.70559 -0.460617,-0.10535 -0.780584,0.18306 -1.691858,1.52497 -1.019026,1.50058 -1.082412,1.68516 -0.679805,1.97955 1.032165,0.75474 5.482159,1.97695 8.009718,2.1999 4.098398,0.36152 4.585333,0.35071 4.760473,-0.10571 z m -13.79476,-4.02372 c 2.349792,-3.55555 4.772034,-5.75357 8.285826,-7.51879 1.110155,-0.55771 1.782586,-1.01251 1.494292,-1.01067 -1.455865,0.009 -5.731621,2.85742 -7.498459,4.99478 -1.313942,1.58948 -3.643383,5.05604 -3.397537,5.05604 0.06074,0 0.562891,-0.68461 1.115878,-1.52136 z m 66.28093,-1.03217 c 0.82361,-0.55 2.37398,-1.9945 2.37398,-2.21187 0,-0.19854 -1.43151,-0.90665 -3.57188,-1.76687 -5.17736,-2.0808 -13.2549,-2.25675 -19.71146,-0.42937 -0.80036,0.22652 -1.5327,0.45654 -1.62741,0.51115 -0.1756,0.10125 0.67588,3.73507 0.9362,3.99539 0.0787,0.0787 0.65333,-7.4e-4 1.27702,-0.17647 3.93232,-1.10796 5.70541,-1.35983 9.49274,-1.34848 3.9121,0.0117 6.41296,0.41879 8.70692,1.41719 1.20854,0.526 1.34927,0.52661 2.12389,0.009 z m -72.373384,-1.2206 c 0.435151,-0.76189 0.777315,-1.525 0.760363,-1.69581 -0.01695,-0.17081 -0.720956,-1.39921 -1.564455,-2.72978 -1.256333,-1.98178 -1.578796,-2.33852 -1.783396,-1.97291 -0.137368,0.24546 -0.190762,0.96972 -0.118653,1.60947 0.07211,0.63975 0.01806,1.23305 -0.120116,1.31845 -0.435734,0.2693 0.06903,2.29611 0.898215,3.60669 0.437331,0.69122 0.872032,1.25505 0.966003,1.25295 0.09397,-0.002 0.526888,-0.62717 0.962039,-1.38906 z m -12.102121,-4.73203 c 1.245489,-0.40338 1.653646,-0.65729 1.653646,-1.02875 0,-0.44525 -0.186421,-0.40727 -1.918229,0.39079 -1.055026,0.48618 -2.721901,1.24796 -3.704167,1.69285 -0.982266,0.44488 -1.785938,0.93119 -1.785938,1.08069 0,0.14949 0.922735,-0.14936 2.050521,-0.66411 1.127787,-0.51474 2.794662,-1.17691 3.704167,-1.47147 z m 29.170313,2.27531 c 0,-0.35556 -0.831248,-1.70665 -1.050004,-1.70665 -0.133466,0 -0.695459,0.26715 -1.248873,0.59367 l -1.006208,0.59368 1.321813,0.30697 c 1.565606,0.36358 1.983272,0.40829 1.983272,0.21233 z m 20.304702,-2.03738 c 0.74091,-0.90951 3.19154,-3.53457 5.44585,-5.83347 4.35786,-4.44407 6.41482,-7.12119 7.51935,-9.78643 0.56649,-1.36694 0.6854,-2.08607 0.70522,-4.26498 0.0156,-1.71534 -0.0784,-2.65593 -0.27214,-2.72244 -0.46761,-0.16057 -3.49419,2.59919 -3.82188,3.48494 -1.62562,4.39405 -2.08139,5.01622 -8.73572,11.92508 -3.95308,4.1043 -6.05038,6.5889 -5.77271,6.83874 0.43121,0.38799 3.07331,1.98811 3.3004,1.9988 0.15649,0.007 0.89073,-0.73074 1.63163,-1.64024 z m -33.629503,-1.05422 0.69106,-0.98807 -1.499742,-1.8562 c -0.824858,-1.02091 -1.611264,-1.8562 -1.747569,-1.8562 -0.271421,0 -1.839548,2.60457 -1.843549,3.06203 -0.0014,0.15615 0.55495,1.15518 1.236257,2.22007 l 1.23874,1.93617 0.616872,-0.76487 c 0.339279,-0.42067 0.927849,-1.20949 1.307931,-1.75293 z m -21.071033,0.74947 c 1.309989,-0.56949 1.954338,-0.99025 1.895991,-1.23807 -0.04861,-0.20648 -0.27802,-1.08979 -0.509796,-1.96291 -0.476746,-1.79595 -0.516552,-4.03691 -0.09859,-5.55063 0.205329,-0.74364 0.19649,-1.52488 -0.03235,-2.85938 l -0.314871,-1.83619 -1.249714,0.14801 c -3.577464,0.4237 -4.726641,2.63652 -3.807749,7.33208 0.50422,2.57657 1.744739,6.87604 1.975977,6.84845 0.0862,-0.0103 1.049702,-0.40689 2.141108,-0.88136 z m 68.854936,0.12441 c 0.98069,-0.32367 1.8399,-0.68046 1.90937,-0.79286 0.0695,-0.1124 -0.4198,-1.08539 -1.08725,-2.1622 l -1.21356,-1.95783 0.79187,-1.52136 c 0.43552,-0.83674 0.70874,-1.52135 0.60714,-1.52135 -0.1016,0 -0.73281,0.8632 -1.40269,1.91823 -0.66988,1.05502 -1.64316,2.32854 -2.16285,2.83003 -0.51968,0.50149 -0.94488,1.06385 -0.94488,1.24969 0,0.61481 1.16523,2.7488 1.44509,2.64653 0.15109,-0.0552 1.07708,-0.36521 2.05776,-0.68888 z m -17.57257,-4.08026 c 0.41957,-0.46462 0.38738,-0.53711 -0.61512,-1.38512 -0.58183,-0.49217 -1.17693,-0.89467 -1.32245,-0.89446 -0.38141,5.6e-4 -3.21154,4.03627 -2.90353,4.14038 0.14173,0.0479 0.78253,0.43526 1.42399,0.86078 l 1.1663,0.77368 0.90403,-1.50249 c 0.49722,-0.82637 1.10327,-1.72311 1.34678,-1.99277 z m 29.43393,2.2779 c -1.2175,-4.22341 -4.92496,-10.30006 -8.91107,-14.60553 l -1.53842,-1.66167 -0.22381,0.7575 c -0.12309,0.41662 -0.45936,1.49319 -0.74727,2.39237 l -0.52346,1.63487 1.67518,2.07493 c 1.91235,2.36869 4.05641,5.81269 5.18588,8.33006 l 0.77277,1.72236 2.26021,0.0422 2.26022,0.0422 z m -77.013664,-1.18381 c -0.195232,-0.62314 -0.423582,-2.08547 -0.507445,-3.24964 -0.205452,-2.85203 -0.681645,-2.61153 -0.681645,0.34428 0,1.72234 0.1311,2.61298 0.507161,3.44542 0.672043,1.48762 1.188956,1.07825 0.681929,-0.54006 z m 23.279528,-5.2703 c 0.485358,-0.30924 0.639895,-0.61714 0.593786,-1.18306 -0.106594,-1.30829 -1.13812,-4.07232 -1.519775,-4.07232 -1.076466,0 -6.477004,4.91947 -6.477004,5.90005 0,0.30594 1.086459,1.82306 2.074038,2.89616 l 0.668528,0.72642 2.002155,-1.9246 c 1.101185,-1.05853 2.297407,-2.11272 2.658272,-2.34265 z m -21.173282,3.54202 c -0.0066,-0.10915 -0.298852,-0.73422 -0.649503,-1.38907 l -0.637546,-1.19062 -0.01196,0.87729 c -0.01443,1.05849 0.394772,1.90083 0.923395,1.90083 0.213161,0 0.382185,-0.0893 0.37561,-0.19843 z m 41.965858,-1.68739 c 0.20869,-0.40355 0.37931,-0.82894 0.37916,-0.94531 -3.1e-4,-0.24351 -2.21663,-1.51413 -3.12276,-1.79028 -0.5763,-0.17563 -0.55035,-0.0681 0.47659,1.97438 1.17392,2.33479 1.41195,2.41472 2.26701,0.76121 z m 8.16341,-2.8086 c 0.55295,-0.61741 0.94382,-1.28295 0.86859,-1.47898 -0.0752,-0.19604 -1.39798,-1.21492 -2.93946,-2.26419 -1.54148,-1.04927 -2.80269,-2.08037 -2.80269,-2.29134 0,-0.21096 0.10813,-0.38357 0.24029,-0.38357 0.13216,0 0.48137,-0.71385 0.77601,-1.58634 0.46184,-1.36757 0.4841,-1.63796 0.16141,-1.96065 -0.46498,-0.46498 -2.72298,-1.34593 -2.92697,-1.14195 -0.0825,0.0825 -0.018,1.00033 0.14325,2.03967 0.16126,1.03934 0.22917,1.99329 0.15093,2.1199 -0.0782,0.12661 -1.05273,-0.18471 -2.16551,-0.69183 -2.68665,-1.22434 -7.52999,-2.80841 -10.799203,-3.532 -3.660405,-0.81017 -3.391565,-0.66636 -2.926608,-1.56549 0.516624,-0.99904 2.324911,-2.55185 3.922861,-3.36862 2.05104,-1.04838 4.27487,-1.48902 7.60271,-1.50645 2.5097,-0.0131 3.50618,0.10919 5.68854,0.69833 2.70408,0.73 6.88299,2.57475 8.06979,3.56236 l 0.66146,0.55044 -1.61671,1.66996 c -1.94113,2.00508 -4.67706,5.25397 -4.53993,5.39111 0.0541,0.054 0.74704,0.56611 1.53996,1.1379 l 1.44168,1.03962 4.10104,-4.15254 c 4.47759,-4.53382 9.16028,-8.82836 11.02583,-10.11189 2.01417,-1.38579 3.85568,-1.89158 6.43667,-1.76792 2.56936,0.12311 4.46861,0.84973 6.7775,2.59296 1.7893,1.35094 3.79452,4.36259 4.5892,6.89257 0.34053,1.08409 0.72058,2.08447 0.84457,2.22307 0.12399,0.1386 0.96929,0.53325 1.87844,0.87699 2.84777,1.07671 2.64712,1.10667 2.44319,-0.36485 -0.86453,-6.23827 -4.60983,-11.96765 -9.72912,-14.88316 -3.1221,-1.77808 -7.25178,-2.416341 -10.60973,-1.63978 -3.04553,0.70432 -4.91453,1.96346 -9.70473,6.53806 -1.7103,1.63333 -3.0347,2.71167 -3.09783,2.5223 -0.0606,-0.18195 0.0303,-0.50018 0.20211,-0.7072 0.45025,-0.54252 0.2017,-0.79869 -2.0665,-2.12983 -2.34046,-1.37355 -5.87543,-2.58074 -9.38149,-3.20378 -3.24724,-0.57704 -8.46621,-0.56318 -10.90707,0.029 -3.847304,0.93335 -7.962728,3.75602 -10.040783,6.88675 l -0.967712,1.45792 -1.507211,0.002 c -9.214402,0.0138 -18.624698,2.83924 -22.808695,6.84822 l -1.548667,1.48389 0.234906,1.19063 c 0.129199,0.65484 0.240092,1.33897 0.24643,1.52028 0.0063,0.18131 0.7466,-0.26268 1.645028,-0.98664 2.269132,-1.82849 5.112337,-3.24238 8.68555,-4.3192 4.197438,-1.26495 6.352285,-1.57716 11.112195,-1.61006 6.186832,-0.0428 8.981291,0.31977 14.060129,1.82405 5.46545,1.61878 11.25877,4.57983 14.90758,7.61949 0.90877,0.75706 1.04121,0.70318 2.62877,-1.06943 z m 19.72338,-6.66527 c 0.39708,-0.74195 0.33593,-2.54694 -0.0985,-2.9075 -0.22876,-0.18985 -1.09142,-0.27889 -2.23656,-0.23083 l -1.86416,0.0782 1.50896,1.76845 c 1.57136,1.84159 2.22739,2.15656 2.69027,1.29165 z m 4.24264,-1.20802 c 0.95525,-0.21011 3.16859,-0.38241 4.97877,-0.38758 3.72957,-0.0106 3.56882,0.17379 2.25667,-2.58891 -1.48355,-3.12357 -5.3071,-5.99928 -8.44727,-6.35322 l -1.25238,-0.14117 0.17147,1.42815 c 0.0943,0.78548 0.17251,3.00573 0.17378,4.93388 0.001,1.92815 0.0916,3.50155 0.20073,3.49643 0.10914,-0.005 0.97235,-0.17952 1.91823,-0.38758 z m -74.046527,-1.12447 1.682986,-0.99219 -0.224387,-2.17745 c -0.537007,-5.21108 1.669128,-9.97394 5.708244,-12.323613 1.863952,-1.084314 5.262259,-1.860543 7.216144,-1.648285 4.197192,0.455957 7.567949,1.784873 11.175473,4.405908 2.457024,1.78515 3.487816,1.97002 2.417585,0.43359 -1.169922,-1.67954 -4.623525,-4.845096 -6.449308,-5.911394 -2.997946,-1.750867 -4.658395,-2.264811 -7.805209,-2.415879 -3.262251,-0.156609 -5.166032,0.239362 -8.127558,1.690466 -2.195402,1.075715 -4.923289,3.451789 -6.140379,5.348457 -1.767925,2.75507 -2.482334,6.25108 -2.115544,10.35255 0.283045,3.16502 0.473312,4.23002 0.755713,4.23002 0.12279,0 0.980598,-0.44648 1.90624,-0.99218 z m 41.502777,-1.35214 c 0,-0.56177 -0.0757,-1.5738 -0.16825,-2.24896 -0.13174,-0.96115 -0.27529,-1.22755 -0.66146,-1.22755 -0.43114,0 -0.4932,0.21861 -0.4932,1.73718 0,1.85345 0.30739,2.76074 0.93535,2.76074 0.27343,0 0.38756,-0.30079 0.38756,-1.02141 z m -1.97882,-2.06851 -0.17592,-1.408 -0.97315,0.004 c -1.29576,0.005 -2.16411,0.25482 -2.1623,0.62256 8.1e-4,0.16493 0.12355,0.73941 0.27276,1.27662 0.23708,0.85363 0.44532,1.04201 1.65217,1.49461 l 1.38089,0.51786 0.0907,-0.54963 c 0.0499,-0.30229 0.0116,-1.18323 -0.0852,-1.95763 z m -35.526359,-0.17347 c -0.242223,-1.22966 -0.330618,-2.87233 -0.251525,-4.67411 0.120601,-2.74738 0.117576,-2.76495 -0.273376,-1.5875 -0.394592,1.18841 -0.79119,7.31983 -0.519298,8.02837 0.08872,0.23121 0.385225,0.3266 0.780382,0.25106 l 0.637293,-0.12183 z m 29.949519,0.28682 c -0.24866,-0.80894 -0.25683,-0.81337 -1.02676,-0.55672 -1.24,0.41333 -0.84938,0.85398 0.99348,1.12073 0.11895,0.0172 0.13392,-0.23658 0.0333,-0.56401 z m 13.20287,-2.04933 c -0.33706,-0.31281 -3.30057,-1.11311 -3.4752,-0.93848 -0.25578,0.25578 0.26884,0.60023 1.92903,1.26656 1.29461,0.5196 1.60429,0.56722 1.67846,0.25813 0.05,-0.20846 -0.01,-0.47226 -0.13229,-0.58621 z m 22.3138,0.42173 c 0.20657,-0.14265 -0.57634,-2.60685 -0.86322,-2.71693 -0.42756,-0.16407 -2.39471,0.92694 -3.12369,1.73246 -0.40871,0.45162 -0.43891,0.62428 -0.16661,0.95238 0.26629,0.32087 0.70872,0.36728 2.21933,0.23282 1.0377,-0.0924 1.90808,-0.1827 1.93419,-0.20073 z m -49.980986,-0.27469 c 1.857538,-0.0261 1.938959,-0.0546 2.329485,-0.81525 0.222568,-0.4335 0.776101,-1.25347 1.230072,-1.82214 l 0.825403,-1.03395 -1.464913,0.15119 c -1.839741,0.18988 -3.713715,1.12903 -5.393217,2.70286 l -1.303728,1.22169 0.926042,-0.18867 c 0.509323,-0.10376 1.792208,-0.20084 2.850856,-0.21573 z m 20.385816,-9.73937 c 2.45247,-3.312664 5.31991,-5.071126 8.92928,-5.4759 4.32571,-0.485108 8.13945,0.933226 11.43138,4.251332 1.05105,1.059418 1.911,2.021348 1.911,2.137628 0,0.39742 0.66084,0.20928 1.43185,-0.40765 l 0.77039,-0.61643 -0.80688,-1.168192 c -1.14779,-1.661753 -3.9026,-4.208714 -5.76098,-5.326323 -4.51361,-2.714423 -9.76252,-2.967497 -14.41979,-0.695243 -2.34141,1.142359 -5.40791,4.230647 -6.55904,6.605638 -0.46711,0.96374 -0.8493,1.82695 -0.8493,1.91823 0,0.0913 0.65109,0.16597 1.44686,0.16597 1.43845,0 1.45285,-0.008 2.47523,-1.38906 z m 1.63416,1.00139 c 0,-0.61182 1.58887,-2.264435 3.11831,-3.243419 0.80784,-0.517094 2.34109,-1.138847 3.63021,-1.472099 2.17362,-0.561901 2.287,-0.565486 4.35573,-0.137719 1.16821,0.24156 2.80883,0.745305 3.64582,1.119433 1.39583,0.623924 1.46705,0.633306 0.86035,0.113346 -1.95004,-1.671237 -5.53907,-2.565429 -8.52069,-2.122893 -2.75516,0.408924 -4.83106,1.534636 -6.9268,3.756227 -0.96274,1.020554 -1.75043,1.972374 -1.75043,2.115174 0,0.14279 0.35719,0.25962 0.79375,0.25962 0.52079,0 0.79375,-0.13332 0.79375,-0.38767 z m 2.56563,-0.57282 c 1.1589,-1.158896 3.21599,-2.14097 5.29344,-2.527135 1.29399,-0.24053 1.85407,-0.204638 3.58416,0.22969 1.12779,0.283122 2.05052,0.432267 2.05052,0.331433 0,-0.100835 -0.61235,-0.44676 -1.36077,-0.768724 -1.6741,-0.720177 -4.80257,-0.81373 -6.54155,-0.195615 -1.447,0.514333 -3.37519,1.842215 -4.36072,3.003081 -0.71885,0.84676 -0.72761,0.88776 -0.18961,0.88776 0.31022,0 0.99626,-0.43222 1.52453,-0.96049 z"
       id="path1" /></g></svg>
